#!OML:ASF X:\für Bonn\!DataBase\2005_08_12_Daniel\c3d\Daniel.ASF
:FULLY-SPECIFIED
:DEGREES
16
root 2.56815 17.4658 17.6496 -10.1039 -353.65 361.283
lowerback 10.165 -2.88407 -1.79329
upperback 2.38668 -4.08991 -2.03289
thorax -3.22778 -2.02126 -0.579943
lowerneck 1.57704 2.87593 -2.94914
upperneck 6.5821 4.02526 -3.3991
head 1.79503 1.87167 -0.522812
rclavicle 1.75303e-014 8.34896e-015
rhumerus -39.1638 -7.66467 -88.9711
rradius 23.532
rwrist 14.202
rhand -16.9668 14.2756
rfingers 7.12502
rthumb 9.26733 -15.5007
lclavicle 1.75303e-014 8.34896e-015
lhumerus -28.8961 24.8168 78.4927
lradius 32.0697
lwrist -15.9269
lhand -15.6636 -3.88333
lfingers 7.12502
lthumb 10.5247 25.8332
rfemur 2.41653 7.91292 14.6829
rtibia 26.1934
rfoot -19.3682 -10.7088
rtoes -12.5176
lfemur -3.51484 -11.9446 -22.8336
ltibia 34.4977
lfoot -18.9541 1.45063
ltoes -13.0242
17
root 2.55836 17.4643 17.7002 -10.2206 -353.557 361.324
lowerback 10.0949 -2.88643 -1.82644
upperback 2.44339 -4.09357 -2.05998
thorax -3.12986 -2.02405 -0.594652
lowerneck 1.68481 2.86822 -2.89087
upperneck 6.51874 4.00936 -3.43612
head 1.75796 1.86711 -0.546147
rclavicle -1.79217e-014 2.0276e-014
rhumerus -39.153 -7.66815 -88.9316
rradius 23.4411
rwrist 14.415
rhand -16.9149 14.4442
rfingers 7.12502
rthumb 9.31745 -15.3299
lclavicle -1.79217e-014 2.0276e-014
lhumerus -28.7392 25.1429 78.5239
lradius 31.8719
lwrist -16.009
lhand -15.8857 -3.86834
lfingers 7.12502
lthumb 10.3104 25.8589
rfemur 3.05486 8.12222 14.8363
rtibia 25.8073
rfoot -19.6434 -11.0998
rtoes -12.6112
lfemur -3.09766 -12.1546 -22.9553
ltibia 34.3789
lfoot -19.115 1.60901
ltoes -13.1282
18
root 2.54933 17.463 17.7505 -10.2975 -353.497 361.376
lowerback 9.97598 -2.87281 -1.84763
upperback 2.48755 -4.07385 -2.09288
thorax -3.0193 -2.01547 -0.627109
lowerneck 1.81474 2.86045 -2.82041
upperneck 6.44079 3.99157 -3.46619
head 1.7125 1.86263 -0.569722
rclavicle 5.64176e-014 3.18055e-015
rhumerus -39.1292 -7.69218 -88.8729
rradius 23.3102
rwrist 14.6444
rhand -16.8529 14.6177
rfingers 7.12502
rthumb 9.37727 -15.1538
lclavicle 5.64176e-014 3.18055e-015
lhumerus -28.584 25.5702 78.5155
lradius 31.5421
lwrist -16.2082
lhand -16.0927 -4.06081
lfingers 7.12502
lthumb 10.1107 25.6763
rfemur 3.63435 8.32827 14.9618
rtibia 25.4305
rfoot -19.894 -11.4294
rtoes -12.6415
lfemur -2.71686 -12.3498 -23.0892
ltibia 34.2539
lfoot -19.2825 1.80462
ltoes -13.3554
19
root 2.54066 17.4629 17.7988 -10.3122 -353.426 361.412
lowerback 9.79608 -2.86643 -1.84748
upperback 2.50531 -4.06026 -2.11944
thorax -2.90358 -2.01009 -0.666485
lowerneck 1.96305 2.8426 -2.71222
upperneck 6.38363 3.9616 -3.5132
head 1.6718 1.85233 -0.605016
rclavicle -6.1499e-015 -1.43125e-014
rhumerus -39.1156 -7.72507 -88.8017
rradius 23.1631
rwrist 14.9206
rhand -16.793 14.8196
rfingers 7.12502
rthumb 9.43504 -14.9492
lclavicle -6.1499e-015 -1.43125e-014
lhumerus -28.4714 25.8865 78.5092
lradius 31.1759
lwrist -16.2957
lhand -16.3083 -4.32584
lfingers 7.12502
lthumb 9.90269 25.4213
rfemur 4.12434 8.4714 15.0787
rtibia 25.0671
rfoot -20.0871 -11.724
rtoes -12.7181
lfemur -2.40691 -12.5928 -23.1981
ltibia 34.1212
lfoot -19.4349 2.01455
ltoes -13.4616
20
root 2.53193 17.4645 17.8466 -10.2899 -353.37 361.442
lowerback 9.56534 -2.85665 -1.82217
upperback 2.52669 -4.03843 -2.15867
thorax -2.7587 -2.00102 -0.736651
lowerneck 2.0876 2.82132 -2.56565
upperneck 6.30815 3.92877 -3.5775
head 1.6306 1.84132 -0.651731
rclavicle -4.25399e-014 2.26615e-014
rhumerus -39.0715 -7.99605 -88.6339
rradius 22.9391
rwrist 15.4608
rhand -16.71 15.1603
rfingers 7.12502
rthumb 9.5152 -14.6048
lclavicle -4.25399e-014 2.26615e-014
lhumerus -28.3488 26.24 78.4617
lradius 30.7302
lwrist -16.4908
lhand -16.4797 -4.7165
lfingers 7.12502
lthumb 9.73737 25.0384
rfemur 4.5579 8.61009 15.1945
rtibia 24.7125
rfoot -20.2447 -11.9786
rtoes -12.8082
lfemur -2.1422 -12.8108 -23.2854
ltibia 33.9838
lfoot -19.5662 2.20925
ltoes -13.5212
21
root 2.52319 17.4668 17.8929 -10.2606 -353.328 361.473
lowerback 9.33321 -2.8436 -1.80247
upperback 2.54413 -4.01244 -2.18438
thorax -2.61567 -1.98973 -0.790025
lowerneck 2.15138 2.79608 -2.53658
upperneck 6.29318 3.89145 -3.56632
head 1.61489 1.82465 -0.654342
rclavicle 9.86469e-015 8.74653e-015
rhumerus -39.0176 -8.1949 -88.473
rradius 22.6819
rwrist 15.9832
rhand -16.6593 15.4802
rfingers 7.12502
rthumb 9.56406 -14.2827
lclavicle 9.86469e-015 8.74653e-015
lhumerus -28.2571 26.5478 78.4256
lradius 30.2684
lwrist -16.6556
lhand -16.5833 -5.09579
lfingers 7.12502
lthumb 9.63745 24.6638
rfemur 4.96788 8.77911 15.3115
rtibia 24.3655
rfoot -20.3861 -12.2355
rtoes -12.8194
lfemur -1.88117 -13.0466 -23.3784
ltibia 33.837
lfoot -19.6893 2.42089
ltoes -13.6129
22
root 2.51418 17.4696 17.9387 -10.2057 -353.279 361.489
lowerback 9.06936 -2.83977 -1.72271
upperback 2.55074 -3.99292 -2.21512
thorax -2.4708 -1.98179 -0.882439
lowerneck 2.2188 2.77644 -2.6184
upperneck 6.26541 3.85707 -3.49378
head 1.59069 1.80832 -0.61962
rclavicle 2.25248e-014 -2.70347e-014
rhumerus -38.9764 -8.42097 -88.2885
rradius 22.4061
rwrist 16.4916
rhand -16.6001 15.8766
rfingers 7.12502
rthumb 9.62123 -13.8837
lclavicle 2.25248e-014 -2.70347e-014
lhumerus -28.2269 26.8796 78.3636
lradius 29.8046
lwrist -16.9295
lhand -16.6218 -5.46492
lfingers 7.12502
lthumb 9.60023 24.2963
rfemur 5.32369 8.91124 15.4289
rtibia 24.0214
rfoot -20.4839 -12.4598
rtoes -12.889
lfemur -1.64954 -13.2582 -23.4378
ltibia 33.6802
lfoot -19.8155 2.61102
ltoes -13.728
23
root 2.50496 17.4733 17.984 -10.1411 -353.245 361.509
lowerback 8.81082 -2.83127 -1.58417
upperback 2.53203 -3.96411 -2.26746
thorax -2.36041 -1.96895 -1.02954
lowerneck 2.3164 2.76286 -2.80911
upperneck 6.24063 3.82356 -3.31915
head 1.55776 1.79192 -0.535761
rclavicle 1.14798e-014 1.59028e-014
rhumerus -38.9985 -8.64912 -88.1032
rradius 22.145
rwrist 16.9638
rhand -16.5697 16.2672
rfingers 7.12502
rthumb 9.65054 -13.4917
lclavicle 1.14798e-014 1.59028e-014
lhumerus -28.2476 27.3371 78.2312
lradius 29.3098
lwrist -17.385
lhand -16.5292 -5.81205
lfingers 7.12502
lthumb 9.68959 23.9451
rfemur 5.64354 9.02942 15.5368
rtibia 23.6849
rfoot -20.534 -12.6808
rtoes -13.0817
lfemur -1.42257 -13.4831 -23.4988
ltibia 33.5084
lfoot -19.9322 2.81199
ltoes -13.8365
24
root 2.49569 17.4782 18.0281 -10.0449 -353.211 361.517
lowerback 8.54063 -2.82322 -1.43829
upperback 2.49051 -3.93593 -2.30622
thorax -2.26642 -1.95616 -1.16639
lowerneck 2.39737 2.74651 -3.02939
upperneck 6.24213 3.78729 -3.1376
head 1.53566 1.77277 -0.444768
rclavicle -4.21051e-014 -2.0276e-014
rhumerus -39.0476 -8.75887 -87.9498
rradius 21.8887
rwrist 17.3216
rhand -16.6479 16.7193
rfingers 7.12502
rthumb 9.57506 -13.0431
lclavicle -4.21051e-014 -2.0276e-014
lhumerus -28.287 27.7965 78.0955
lradius 28.7858
lwrist -17.9102
lhand -16.3821 -6.06865
lfingers 7.12502
lthumb 9.83154 23.6818
rfemur 5.91384 9.20667 15.6647
rtibia 23.349
rfoot -20.5829 -12.9379
rtoes -13.1891
lfemur -1.22907 -13.7182 -23.545
ltibia 33.3285
lfoot -20.0392 3.03375
ltoes -13.8347
25
root 2.48586 17.4833 18.0718 -9.94103 -353.178 361.523
lowerback 8.26649 -2.81749 -1.28768
upperback 2.44005 -3.91164 -2.35572
thorax -2.18028 -1.94517 -1.3163
lowerneck 2.50942 2.73143 -3.21475
upperneck 6.22927 3.75126 -2.9674
head 1.50496 1.75487 -0.36377
rclavicle 6.63817e-014 -7.95139e-016
rhumerus -39.1282 -8.82845 -87.8347
rradius 21.6647
rwrist 17.6095
rhand -16.7918 17.1339
rfingers 7.12502
rthumb 9.43624 -12.6348
lclavicle 6.63817e-014 -7.95139e-016
lhumerus -28.3583 28.2892 77.9102
lradius 28.2537
lwrist -18.5147
lhand -16.1992 -6.27293
lfingers 7.12502
lthumb 10.008 23.4691
rfemur 6.15461 9.35433 15.7878
rtibia 23.0248
rfoot -20.6113 -13.1883
rtoes -13.3215
lfemur -1.04274 -13.9425 -23.5765
ltibia 33.1318
lfoot -20.1341 3.21388
ltoes -13.9302
26
root 2.47615 17.4889 18.1147 -9.82776 -353.16 361.533
lowerback 7.9496 -2.80084 -1.19586
upperback 2.42886 -3.87519 -2.37912
thorax -2.02364 -1.92817 -1.4111
lowerneck 2.518 2.7145 -3.36453
upperneck 6.22907 3.71939 -2.81552
head 1.49728 1.73823 -0.292713
rclavicle -2.66744e-014 -1.86858e-014
rhumerus -39.1597 -8.7756 -87.7846
rradius 21.5407
rwrist 17.7238
rhand -17.0285 17.518
rfingers 7.12502
rthumb 9.20781 -12.2609
lclavicle -2.66744e-014 -1.86858e-014
lhumerus -28.3741 28.7284 77.8083
lradius 27.7439
lwrist -19.0731
lhand -15.9433 -6.39958
lfingers 7.12502
lthumb 10.2549 23.3304
rfemur 6.38145 9.59507 15.9297
rtibia 22.7066
rfoot -20.6847 -13.4944
rtoes -13.5187
lfemur -0.861237 -14.1575 -23.6086
ltibia 32.932
lfoot -20.2313 3.41342
ltoes -13.9929
27
root 2.46589 17.4947 18.1577 -9.68796 -353.134 361.543
lowerback 7.62678 -2.78295 -1.16569
upperback 2.39256 -3.84248 -2.39107
thorax -1.88461 -1.91273 -1.45874
lowerneck 2.56578 2.69172 -3.35221
upperneck 6.22738 3.68566 -2.79041
head 1.48831 1.7226 -0.287885
rclavicle 9.3553e-015 2.18663e-014
rhumerus -39.2268 -8.61806 -87.8
rradius 21.4807
rwrist 17.7022
rhand -17.3276 17.8921
rfingers 7.12502
rthumb 8.91918 -11.8994
lclavicle 9.3553e-015 2.18663e-014
lhumerus -28.5084 29.0699 77.6696
lradius 27.3044
lwrist -19.6431
lhand -15.6462 -6.43961
lfingers 7.12502
lthumb 10.5415 23.276
rfemur 6.57337 9.83081 16.0724
rtibia 22.3981
rfoot -20.7595 -13.8094
rtoes -13.6886
lfemur -0.712208 -14.3761 -23.6313
ltibia 32.7322
lfoot -20.3338 3.60598
ltoes -14.0981
